<svg fill="none" height="14" viewBox="0 0 14 14" width="14" xmlns="http://www.w3.org/2000/svg"><path d="m4.375 4.375v3.5c0 1.4875 1.1375 2.625 2.625 2.625s2.625-1.1375 2.625-2.625v-3.9375c0-2.1875-1.75-3.9375-3.9375-3.9375s-3.9375 1.75-3.9375 3.9375v4.8125c0 2.8875 2.3625 5.25 5.25 5.25s5.25-2.3625 5.25-5.25v-5.25h-1.75v5.25c0 1.925-1.575 3.5-3.5 3.5s-3.5-1.575-3.5-3.5v-4.8125c0-1.225.9625-2.1875 2.1875-2.1875s2.1875.9625 2.1875 2.1875v3.9375c0 .525-.35.875-.875.875s-.875-.35-.875-.875v-3.5z" fill="#454545"/></svg>