<svg fill="none" height="14" viewBox="0 0 14 14" width="14" xmlns="http://www.w3.org/2000/svg"><g fill="#454545"><path d="m7 0c-3.85 0-7 3.15-7 7s3.15 7 7 7 7-3.15 7-7-3.15-7-7-7zm0 12.25c-2.8875 0-5.25-2.3625-5.25-5.25s2.3625-5.25 5.25-5.25 5.25 2.3625 5.25 5.25-2.3625 5.25-5.25 5.25z"/><path d="m5.25 6.125c.48325 0 .875-.39175.875-.875s-.39175-.875-.875-.875-.875.39175-.875.875.39175.875.875.875z"/><path d="m8.75 6.125c.48325 0 .875-.39175.875-.875s-.39175-.875-.875-.875-.875.39175-.875.875.39175.875.875.875z"/><path d="m8.75 7c-.525 0-.875.35-.875.875s-.35.875-.875.875-.875-.35-.875-.875-.35-.875-.875-.875-.875.35-.875.875c0 1.4875 1.1375 2.625 2.625 2.625s2.625-1.1375 2.625-2.625c0-.525-.35-.875-.875-.875z"/></g></svg>