<svg fill="none" height="14" viewBox="0 0 14 14" width="14" xmlns="http://www.w3.org/2000/svg"><path clip-rule="evenodd" d="m14 6.52257c0-.23144-.0917-.45344-.255-.61743l-3.88137-3.89757c-.1642-.16488-.38731-.25757-.62001-.25757h-4.48799c-.23206 0-.45462.09219-.61871.25628l-3.880638 3.88064c-.1640947.16409-.256282.38665-.256282.61871v3.94137c0 1.059.885255 1.9091 1.93568 1.9091h10.15522c1.0547 0 1.9091-.8544 1.9091-1.9091zm-9.0505.37137h-3.50045l3.58838-3.58838h3.94536l3.57271 3.59784-3.50499-.01029v.21295c0 1.02131-.92515 2.05051-2.05051 2.05051-1.12549 0-2.0505-1.02919-2.0505-2.05051z" fill="#454545" fill-rule="evenodd"/></svg>