<svg fill="none" height="14" viewBox="0 0 14 14" width="14" xmlns="http://www.w3.org/2000/svg"><path d="m13.2431 5.936c-1.1401-.28525-1.6809-1.59075-1.0762-2.59787.2817-.469.1968-.87325-.0823-1.1515l-.2712-.27126c-.2783-.27825-.6825-.36312-1.1515-.08224-1.00802.60462-2.31353.06387-2.5979-1.076255-.13213-.531125-.47863-.756875-.87238-.756875h-.38324c-.39375 0-.73938.22575-.87238.756875-.28525 1.140125-1.59075 1.680875-2.59787 1.076255-.469-.28175-.87413-.19688-1.15238.08137l-.27125.27125c-.27825.27825-.36312.68338-.08137 1.15238.60462 1.008.06387 2.31349-1.076255 2.59787-.529375.13212-.756875.47775-.756875.87238v.38324c0 .39375.22575.73938.756875.87238 1.140125.28525 1.680875 1.59075 1.076255 2.5979-.28175.469-.19688.8732.08224 1.1515l.27126.2712c.27912.2791.68425.3631 1.1515.0823 1.008-.6047 2.31349-.0639 2.59787 1.0762.13212.5312.47863.7569.87238.7569h.38324c.39375 0 .73938-.2257.87238-.7569.28525-1.1401 1.59075-1.6809 2.5979-1.0762.4681.2808.8724.1968 1.1515-.0823l.2712-.2712c.2783-.2783.3631-.6825.0823-1.1515-.6047-1.00802-.0639-2.31353 1.0762-2.5979.5312-.13213.7569-.47863.7569-.87238v-.38324c0-.39463-.2275-.74026-.7569-.87238zm-6.2431 3.689c-1.44987 0-2.625-1.17513-2.625-2.625s1.17513-2.625 2.625-2.625 2.625 1.17513 2.625 2.625-1.17513 2.625-2.625 2.625z" fill="#454545"/></svg>